<svg width="17" height="14" viewBox="0 0 17 14" fill="none" xmlns="http://www.w3.org/2000/svg">
<path d="M10.5572 12.8334C10.2896 12.8334 10.0219 12.6584 9.95498 12.4251L6.54235 3.61675L5.13715 7.23342C5.07024 7.40841 4.80258 7.58342 4.53492 7.58342H1.85835C1.45687 7.58342 1.18921 7.35008 1.18921 7.00008C1.18921 6.65008 1.45687 6.41675 1.85835 6.41675H4.06652L5.94012 1.57508C6.00704 1.34175 6.2747 1.16675 6.54235 1.16675C6.81001 1.16675 7.07767 1.34175 7.14458 1.57508L10.5572 10.3834L11.9624 6.76675C12.0293 6.53342 12.297 6.35841 12.5646 6.35841H15.2412C15.6427 6.35841 15.9104 6.59175 15.9104 6.94175C15.9104 7.29175 15.6427 7.52508 15.2412 7.52508H13.033L11.1594 12.3667C11.0925 12.6584 10.8249 12.8334 10.5572 12.8334Z" fill="black"/>
<mask id="mask0" mask-type="alpha" maskUnits="userSpaceOnUse" x="1" y="1" width="15" height="12">
<path d="M10.5572 12.8334C10.2896 12.8334 10.0219 12.6584 9.95498 12.4251L6.54235 3.61675L5.13715 7.23342C5.07024 7.40841 4.80258 7.58342 4.53492 7.58342H1.85835C1.45687 7.58342 1.18921 7.35008 1.18921 7.00008C1.18921 6.65008 1.45687 6.41675 1.85835 6.41675H4.06652L5.94012 1.57508C6.00704 1.34175 6.2747 1.16675 6.54235 1.16675C6.81001 1.16675 7.07767 1.34175 7.14458 1.57508L10.5572 10.3834L11.9624 6.76675C12.0293 6.53342 12.297 6.35841 12.5646 6.35841H15.2412C15.6427 6.35841 15.9104 6.59175 15.9104 6.94175C15.9104 7.29175 15.6427 7.52508 15.2412 7.52508H13.033L11.1594 12.3667C11.0925 12.6584 10.8249 12.8334 10.5572 12.8334Z" fill="white"/>
</mask>
<g mask="url(#mask0)">
<rect x="0.52002" width="16.0594" height="14" fill="#B4B7BD"/>
</g>
</svg>
