<svg width="19" height="18" viewBox="0 0 19 18" fill="none" xmlns="http://www.w3.org/2000/svg">
<path d="M13.2183 17.8334C12.9507 17.8334 12.683 17.6584 12.6161 17.4251L9.20349 8.61675L7.79829 12.2334C7.73137 12.4084 7.46371 12.5834 7.19606 12.5834H4.51948C4.118 12.5834 3.85034 12.3501 3.85034 12.0001C3.85034 11.6501 4.118 11.4167 4.51948 11.4167H6.72766L8.60126 6.57508C8.66817 6.34175 8.93583 6.16675 9.20349 6.16675C9.47114 6.16675 9.7388 6.34175 9.80572 6.57508L13.2183 15.3834L14.6235 11.7667C14.6905 11.5334 14.9581 11.3584 15.2258 11.3584H17.9023C18.3038 11.3584 18.5715 11.5917 18.5715 11.9417C18.5715 12.2917 18.3038 12.5251 17.9023 12.5251H15.6942L13.8206 17.3667C13.7537 17.6584 13.486 17.8334 13.2183 17.8334Z" fill="black"/>
<mask id="mask0" mask-type="alpha" maskUnits="userSpaceOnUse" x="3" y="6" width="16" height="12">
<path d="M13.2183 17.8334C12.9507 17.8334 12.683 17.6584 12.6161 17.4251L9.20349 8.61675L7.79829 12.2334C7.73137 12.4084 7.46371 12.5834 7.19606 12.5834H4.51948C4.118 12.5834 3.85034 12.3501 3.85034 12.0001C3.85034 11.6501 4.118 11.4167 4.51948 11.4167H6.72766L8.60126 6.57508C8.66817 6.34175 8.93583 6.16675 9.20349 6.16675C9.47114 6.16675 9.7388 6.34175 9.80572 6.57508L13.2183 15.3834L14.6235 11.7667C14.6905 11.5334 14.9581 11.3584 15.2258 11.3584H17.9023C18.3038 11.3584 18.5715 11.5917 18.5715 11.9417C18.5715 12.2917 18.3038 12.5251 17.9023 12.5251H15.6942L13.8206 17.3667C13.7537 17.6584 13.486 17.8334 13.2183 17.8334Z" fill="white"/>
</mask>
<g mask="url(#mask0)">
<rect x="3.18115" y="5" width="16.0594" height="14" fill="white"/>
</g>
</svg>
