<svg width="14" height="14" viewBox="0 0 14 14" fill="none" xmlns="http://www.w3.org/2000/svg">
<path d="M6.99992 5.25001C7.96242 5.25001 8.74992 6.03751 8.74992 7.00001C8.74992 7.96251 7.96242 8.75001 6.99992 8.75001C6.03742 8.75001 5.24992 7.96251 5.24992 7.00001C5.24992 6.03751 6.03742 5.25001 6.99992 5.25001ZM6.99992 4.08334C5.38992 4.08334 4.08325 5.39001 4.08325 7.00001C4.08325 8.61001 5.38992 9.91668 6.99992 9.91668C8.60992 9.91668 9.91658 8.61001 9.91658 7.00001C9.91658 5.39001 8.60992 4.08334 6.99992 4.08334ZM1.16659 7.58334H2.33325C2.65409 7.58334 2.91659 7.32084 2.91659 7.00001C2.91659 6.67918 2.65409 6.41668 2.33325 6.41668H1.16659C0.845752 6.41668 0.583252 6.67918 0.583252 7.00001C0.583252 7.32084 0.845752 7.58334 1.16659 7.58334ZM11.6666 7.58334H12.8333C13.1541 7.58334 13.4166 7.32084 13.4166 7.00001C13.4166 6.67918 13.1541 6.41668 12.8333 6.41668H11.6666C11.3458 6.41668 11.0833 6.67918 11.0833 7.00001C11.0833 7.32084 11.3458 7.58334 11.6666 7.58334ZM6.41658 1.16668V2.33334C6.41658 2.65418 6.67909 2.91668 6.99992 2.91668C7.32075 2.91668 7.58325 2.65418 7.58325 2.33334V1.16668C7.58325 0.845843 7.32075 0.583344 6.99992 0.583344C6.67909 0.583344 6.41658 0.845843 6.41658 1.16668ZM6.41658 11.6667V12.8333C6.41658 13.1542 6.67909 13.4167 6.99992 13.4167C7.32075 13.4167 7.58325 13.1542 7.58325 12.8333V11.6667C7.58325 11.3458 7.32075 11.0833 6.99992 11.0833C6.67909 11.0833 6.41658 11.3458 6.41658 11.6667ZM3.49409 2.67168C3.26659 2.44418 2.89325 2.44418 2.67159 2.67168C2.44409 2.89918 2.44409 3.27251 2.67159 3.49418L3.28992 4.11251C3.51742 4.34001 3.89075 4.34001 4.11242 4.11251C4.33409 3.88501 4.33992 3.51168 4.11242 3.29001L3.49409 2.67168ZM10.7099 9.88751C10.4824 9.66001 10.1091 9.66001 9.88742 9.88751C9.65992 10.115 9.65992 10.4883 9.88742 10.71L10.5058 11.3283C10.7333 11.5558 11.1066 11.5558 11.3283 11.3283C11.5558 11.1008 11.5558 10.7275 11.3283 10.5058L10.7099 9.88751ZM11.3283 3.49418C11.5558 3.26668 11.5558 2.89334 11.3283 2.67168C11.1008 2.44418 10.7274 2.44418 10.5058 2.67168L9.88742 3.29001C9.65992 3.51751 9.65992 3.89084 9.88742 4.11251C10.1149 4.33418 10.4883 4.34001 10.7099 4.11251L11.3283 3.49418ZM4.11242 10.71C4.33992 10.4825 4.33992 10.1092 4.11242 9.88751C3.88492 9.66001 3.51158 9.66001 3.28992 9.88751L2.67159 10.5058C2.44409 10.7333 2.44409 11.1067 2.67159 11.3283C2.89909 11.55 3.27242 11.5558 3.49409 11.3283L4.11242 10.71Z" fill="white"/>
</svg>
